<svg width="74" height="96" viewBox="0 0 74 96" fill="none" xmlns="http://www.w3.org/2000/svg">
<path d="M73.2811 91.9498L62.0311 69.4498C61.5248 68.4937 60.5686 67.875 59.4998 67.875H39.8123V81.9375C39.8123 83.5123 38.575 84.75 36.9998 84.75C35.4246 84.75 34.1873 83.5123 34.1873 81.9375V67.875H14.4998C13.4311 67.875 12.4748 68.4937 11.9686 69.4498L0.718587 91.9498C0.324838 92.7937 0.324838 93.8625 0.831275 94.65C1.39359 95.4936 2.29377 96 3.25002 96H70.75C71.7061 96 72.6065 95.4936 73.1688 94.65C73.675 93.8625 73.675 92.7937 73.2811 91.9498ZM36.9998 39.375C47.8544 39.375 56.6873 30.5421 56.6873 19.6875C56.6873 8.83294 47.8544 0 36.9998 0C26.1453 0 17.3123 8.83294 17.3123 19.6875C17.3123 30.5421 26.1453 39.375 36.9998 39.375Z" fill="url(#paint0_linear_2_1425)"/>
<defs>
<linearGradient id="paint0_linear_2_1425" x1="36.9998" y1="96" x2="36.9998" y2="0" gradientUnits="userSpaceOnUse">
<stop stopColor="#FD3A84"/>
<stop offset="1" stopColor="#FFA68D"/>
</linearGradient>
</defs>
</svg>
