<svg width="38" height="38" viewBox="0 0 38 38" fill="none" xmlns="http://www.w3.org/2000/svg">
<circle cx="19" cy="19" r="19" fill="#0085FF"/>
<path fill-rule="evenodd" clip-rule="evenodd" d="M15.1266 12.5287C16.2225 11.6418 17.5902 11.1579 19 11.1579C20.4098 11.1579 21.7775 11.6418 22.8734 12.5287C23.9697 13.4156 24.7283 14.6518 25.0223 16.0308C25.3168 17.4097 25.1287 18.8479 24.4898 20.105C23.8515 21.3621 22.8009 22.3619 21.5134 22.9374C20.9449 23.1916 20.5789 23.7561 20.5789 24.3789V25.4315C20.5789 26.3035 21.2857 27.0105 22.1579 27.0105H27.4211C28.2933 27.0105 29 26.3035 29 25.4315C29 24.5594 28.2933 23.8526 27.4211 23.8526H25.6375C26.3047 23.1753 26.8685 22.395 27.3054 21.5353C28.2717 19.6336 28.5559 17.4579 28.1108 15.3718C27.6657 13.2856 26.518 11.4155 24.8599 10.0738C23.2018 8.73204 21.133 8 19 8C16.867 8 14.7982 8.73204 13.1401 10.0738C11.482 11.4155 10.3343 13.2856 9.88919 15.3718C9.44408 17.4579 9.72831 19.6336 10.6946 21.5353C10.9356 22.0098 11.2153 22.4601 11.5298 22.8822C11.7853 23.2249 12.0633 23.5491 12.3625 23.8526H10.5789C9.70672 23.8526 9 24.5594 9 25.4315C9 26.3035 9.70672 27.0105 10.5789 27.0105H15.8421C16.7143 27.0105 17.4211 26.3035 17.4211 25.4315V24.3789C17.4211 24.1074 17.3517 23.847 17.2263 23.6186C17.0638 23.3229 16.8074 23.0808 16.4866 22.9374C15.1991 22.3619 14.1485 21.3621 13.5102 20.105C12.8713 18.8479 12.6832 17.4097 12.9777 16.0308C13.2717 14.6518 14.0303 13.4156 15.1266 12.5287Z" fill="white"/>
<path d="M19 11.1579C17.5902 11.1579 16.2225 11.6418 15.1266 12.5287C14.0303 13.4156 13.2717 14.6518 12.9777 16.0308C12.6832 17.4097 12.8713 18.8479 13.5102 20.105C14.1485 21.3621 15.1991 22.3619 16.4866 22.9374C16.8074 23.0808 17.0638 23.3229 17.2263 23.6186C17.3517 23.847 17.4211 24.1074 17.4211 24.3789V25.4315C17.4211 26.3035 16.7143 27.0105 15.8421 27.0105H10.5789C9.70672 27.0105 9 26.3035 9 25.4315C9 24.5594 9.70672 23.8526 10.5789 23.8526H12.3625C12.0633 23.5491 11.7853 23.2249 11.5298 22.8822C11.2153 22.4601 10.9356 22.0098 10.6946 21.5353C9.72831 19.6336 9.44408 17.4579 9.88919 15.3718C10.3343 13.2856 11.482 11.4155 13.1401 10.0738C14.7982 8.73204 16.867 8 19 8C21.133 8 23.2018 8.73204 24.8599 10.0738C26.518 11.4155 27.6657 13.2856 28.1108 15.3718C28.5559 17.4579 28.2717 19.6336 27.3054 21.5353C26.8685 22.395 26.3047 23.1753 25.6375 23.8526H27.4211C28.2933 23.8526 29 24.5594 29 25.4315C29 26.3035 28.2933 27.0105 27.4211 27.0105H22.1579C21.2857 27.0105 20.5789 26.3035 20.5789 25.4315V24.3789C20.5789 23.7561 20.9449 23.1916 21.5134 22.9374C22.8009 22.3619 23.8515 21.3621 24.4898 20.105C25.1287 18.8479 25.3168 17.4097 25.0223 16.0308C24.7283 14.6518 23.9697 13.4156 22.8734 12.5287C21.7775 11.6418 20.4098 11.1579 19 11.1579Z" fill="white"/>
</svg>
