<svg width="56" height="56" viewBox="0 0 56 56" fill="none" xmlns="http://www.w3.org/2000/svg">
<rect width="56" height="56" rx="28" fill="#3772FF"/>
<path d="M28.0004 16.5809C24.4019 16.5809 21.5224 19.4604 21.5224 23.0588V25.7605C20.315 25.8221 19.4048 26.7729 19.4048 28V37.1765C19.4048 38.4455 20.3784 39.4191 21.6474 39.4191H34.3533C35.6223 39.4191 36.596 38.4455 36.596 37.1765V28C36.596 26.7729 35.6857 25.8221 34.4783 25.7605V23.0588C34.4783 19.4604 31.5988 16.5809 28.0004 16.5809ZM34.9342 28V37.1765C34.9342 37.3598 34.8736 37.5029 34.7767 37.5998C34.6798 37.6968 34.5367 37.7573 34.3533 37.7573H21.6474C21.4641 37.7573 21.321 37.6968 21.2241 37.5998C21.1271 37.5029 21.0665 37.3598 21.0665 37.1765V28C21.0665 27.8166 21.1271 27.6735 21.2241 27.5766C21.321 27.4797 21.4641 27.4191 21.6474 27.4191H22.3533H33.6474H34.3533C34.5367 27.4191 34.6798 27.4797 34.7767 27.5766C34.8736 27.6735 34.9342 27.8166 34.9342 28ZM23.1842 25.7573V23.0588C23.1842 20.3749 25.3165 18.2426 28.0004 18.2426C30.6843 18.2426 32.8166 20.3749 32.8166 23.0588V25.7573H23.1842Z" fill="white" stroke="white" strokeWidth="0.25"/>
<path d="M28.0005 29.4118C26.8005 29.4118 25.8828 30.3294 25.8828 31.5294C25.8828 32.447 26.4475 33.2235 27.2946 33.5059V35.0588C27.2946 35.4823 27.5769 35.7647 28.0005 35.7647C28.424 35.7647 28.7063 35.4823 28.7063 35.0588V33.5059C29.5534 33.2235 30.1181 32.447 30.1181 31.5294C30.1181 30.3294 29.2005 29.4118 28.0005 29.4118ZM28.0005 32.2353C27.5769 32.2353 27.2946 31.9529 27.2946 31.5294C27.2946 31.1059 27.5769 30.8235 28.0005 30.8235C28.424 30.8235 28.7063 31.1059 28.7063 31.5294C28.7063 31.9529 28.424 32.2353 28.0005 32.2353Z" fill="white"/>
</svg>
