<svg width="56" height="56" viewBox="0 0 56 56" fill="none" xmlns="http://www.w3.org/2000/svg">
<rect width="56" height="56" rx="28" fill="#CDB4DB"/>
<g clip-path="url(#clip0_2_1344)">
<path d="M38.1483 31.8158C38.6838 30.0414 39.8897 23.4793 31.0313 17.6252C30.7193 17.4197 30.3098 17.4737 30.0623 17.7482C29.8133 18.0226 29.8028 18.4366 30.0368 18.7246C30.0728 18.7681 33.3366 22.8613 32.1757 27.5366C30.1688 26.1146 25.0316 22.3964 22.1878 19.6035C21.9088 19.3321 21.4708 19.3156 21.1739 19.569C20.8784 19.821 20.8244 20.259 21.0509 20.5755C21.1469 20.7075 22.3198 22.3454 23.6802 24.1153C22.4788 23.2183 21.0239 22.0829 19.3005 20.658C19.005 20.415 18.573 20.4315 18.2985 20.7C18.0255 20.9685 17.9971 21.3989 18.234 21.7004C18.504 22.0424 24.2892 29.353 27.9954 32.2313C26.2016 32.8942 22.3033 33.5962 17.1556 30.3024C16.8646 30.1149 16.4821 30.1509 16.2302 30.3939C15.9812 30.6324 15.9272 31.0134 16.1027 31.3118C16.2752 31.6058 20.4014 38.4994 29.1264 38.4994C31.5202 38.4994 32.9196 37.7974 34.0446 37.235C34.736 36.89 35.282 36.6155 35.8775 36.6155C37.3609 36.6155 38.3343 38.1319 38.3433 38.1454C38.4813 38.3659 38.7228 38.4994 38.9808 38.4994C39.0003 38.4994 39.0213 38.4979 39.0423 38.4964C39.3228 38.4739 39.5657 38.2984 39.6737 38.0389C40.7447 35.4786 38.8998 32.7667 38.1483 31.8158ZM35.879 35.1156C34.9295 35.1156 34.1736 35.4936 33.3741 35.8941C32.3392 36.4115 31.1648 36.9995 29.1264 36.9995C24.8156 36.9995 21.7123 35.0736 19.7849 33.3262C25.7771 35.6241 29.7083 33.0967 29.9018 32.9722C30.1208 32.8267 30.2468 32.5793 30.2378 32.3183C30.2273 32.0573 30.0818 31.8203 29.8553 31.6928C28.3689 30.8559 26.0696 28.5175 24.0072 26.2166C26.359 27.9025 27.46 28.465 27.532 28.501C27.874 28.675 28.2924 28.5595 28.4994 28.234C28.7079 27.9115 28.6359 27.4826 28.3359 27.2441C27.898 26.8946 27.193 26.1041 26.4055 25.1427C29.3004 27.3836 31.9777 29.233 32.1592 29.3589C32.3497 29.4879 32.5882 29.5224 32.8102 29.4564C33.0291 29.3859 33.2061 29.221 33.2871 29.0035C34.4211 25.9932 33.8886 23.1763 33.0786 21.1154C38.7858 26.4416 36.7174 31.4318 36.6154 31.6658C36.4954 31.9388 36.5464 32.2568 36.7459 32.4773C36.7669 32.4998 38.3448 34.2652 38.4888 36.1085C37.8573 35.5926 36.9754 35.1156 35.879 35.1156Z" fill="white"/>
</g>
<defs>
<clipPath id="clip0_2_1344">
<rect width="24" height="24" fill="white" transform="translate(16 16)"/>
</clipPath>
</defs>
</svg>
