<svg width="74" height="96" viewBox="0 0 74 96" fill="none" xmlns="http://www.w3.org/2000/svg">
<path d="M73.2816 91.9498L62.0316 69.4498C61.5253 68.4937 60.5691 67.875 59.5003 67.875H39.8128V81.9375C39.8128 83.5123 38.5755 84.75 37.0003 84.75C35.4251 84.75 34.1878 83.5123 34.1878 81.9375V67.875H14.5003C13.4316 67.875 12.4753 68.4937 11.9691 69.4498L0.719076 91.9498C0.325326 92.7937 0.325326 93.8625 0.831764 94.65C1.39408 95.4936 2.29426 96 3.25051 96H70.7505C71.7066 96 72.6069 95.4936 73.1693 94.65C73.6755 93.8625 73.6755 92.7937 73.2816 91.9498ZM37.0003 39.375C47.8549 39.375 56.6878 30.5421 56.6878 19.6875C56.6878 8.83294 47.8549 0 37.0003 0C26.1458 0 17.3128 8.83294 17.3128 19.6875C17.3128 30.5421 26.1458 39.375 37.0003 39.375Z" fill="url(#paint0_linear_713_7972)"/>
<defs>
<linearGradient id="paint0_linear_713_7972" x1="37.0003" y1="96" x2="37.0003" y2="0" gradientUnits="userSpaceOnUse">
<stop stop-color="#FD3A84"/>
<stop offset="1" stop-color="#FFA68D"/>
</linearGradient>
</defs>
</svg>
