<svg width="96" height="86" viewBox="0 0 96 86" fill="none" xmlns="http://www.w3.org/2000/svg">
<path d="M96 17.6875V9.25C96 4.59738 92.2151 0.8125 87.5625 0.8125H19.6875C15.0349 0.8125 11.25 4.59738 11.25 9.25V17.6875L17.2894 23.3125H18.7104L11.25 28.9375H8.4375C3.78488 28.9375 0 32.7224 0 37.375V76.75C0 81.4026 3.78488 85.1875 8.4375 85.1875H76.3125C80.9651 85.1875 84.75 81.4026 84.75 76.75V57.0625L90.375 52.0889V31.75C90.375 27.0974 86.5901 23.3125 81.9375 23.3125H87.6514L96 17.6875Z" fill="url(#paint0_linear_713_7989)"/>
<path d="M14.0625 45.8125H31.125C32.6796 45.8125 33.9375 44.5546 33.9375 43C33.9375 41.4454 32.6796 40.1875 31.125 40.1875H14.0625C12.5079 40.1875 11.25 41.4454 11.25 43C11.25 44.5546 12.5079 45.8125 14.0625 45.8125ZM42.375 51.4375H14.0625C12.5079 51.4375 11.25 52.6954 11.25 54.25C11.25 55.8046 12.5079 57.0625 14.0625 57.0625H42.375C43.9296 57.0625 45.1875 55.8046 45.1875 54.25C45.1875 52.6954 43.9296 51.4375 42.375 51.4375ZM11.25 17.6875V28.9375H76.3125C80.9651 28.9375 84.75 32.7224 84.75 37.375V57.0625H87.5625C92.2151 57.0625 96 53.2776 96 48.625V17.6875H11.25Z" fill="url(#paint1_linear_713_7989)"/>
<defs>
<linearGradient id="paint0_linear_713_7989" x1="48" y1="85.1875" x2="48" y2="0.8125" gradientUnits="userSpaceOnUse">
<stop stop-color="#A93AFF"/>
<stop offset="1" stop-color="#FF81FF"/>
</linearGradient>
<linearGradient id="paint1_linear_713_7989" x1="53.625" y1="70.9739" x2="53.625" y2="15.4677" gradientUnits="userSpaceOnUse">
<stop stop-color="#FFBEF9"/>
<stop offset="1" stop-color="#FFF1FF"/>
</linearGradient>
</defs>
</svg>
