<svg width="96" height="96" viewBox="0 0 96 96" fill="none" xmlns="http://www.w3.org/2000/svg">
<path d="M95.4362 29.4358C94.905 28.7286 94.0719 28.3125 93.1875 28.3125H73.0768C71.7337 20.3417 64.7842 14.25 56.4375 14.25C48.0908 14.25 41.1413 20.3417 39.7982 28.3125H22.3166L18.6416 2.41744C18.4449 1.03069 17.2579 0 15.8571 0H2.8125C1.25925 0 0 1.25925 0 2.8125C0 4.36575 1.25925 5.625 2.8125 5.625H13.4156L17.0904 31.5195V31.5197V31.5203L21.336 61.4263C21.7967 64.6507 23.3647 67.6097 25.7606 69.8046C23.8849 71.3533 22.6875 73.6957 22.6875 76.3125C22.6875 80.1981 25.3284 83.4767 28.9089 84.4526C28.5255 85.4158 28.3125 86.4645 28.3125 87.5625C28.3125 92.2149 32.0976 96 36.75 96C41.4024 96 45.1875 92.2149 45.1875 87.5625C45.1875 86.5766 45.0159 85.6303 44.7038 84.75H68.1712C67.8591 85.6303 67.6875 86.5766 67.6875 87.5625C67.6875 92.2149 71.4726 96 76.125 96C80.7774 96 84.5625 92.2149 84.5625 87.5625C84.5625 82.9101 80.7774 79.125 76.125 79.125H31.125C29.5742 79.125 28.3125 77.8633 28.3125 76.3125C28.3125 74.7617 29.5742 73.5 31.125 73.5H73.2641C79.5096 73.5 85.0697 69.306 86.7825 63.3114L95.8888 31.9084C96.135 31.0588 95.9674 30.1429 95.4362 29.4358Z" fill="url(#paint0_linear_713_7978)"/>
<path d="M56.4375 11.4375C45.5818 11.4375 36.75 20.2693 36.75 31.125C36.75 41.9807 45.5818 50.8125 56.4375 50.8125C67.2932 50.8125 76.125 41.9807 76.125 31.125C76.125 20.2693 67.2932 11.4375 56.4375 11.4375ZM64.0511 30.3013L55.6136 38.7388C55.0646 39.288 54.3448 39.5625 53.625 39.5625C52.9052 39.5625 52.1854 39.288 51.6364 38.7386L48.8239 35.9261C47.7255 34.8278 47.7255 33.0471 48.8239 31.9487C49.9221 30.8503 51.7029 30.8503 52.8013 31.9487L53.6252 32.7724L60.0741 26.3237C61.1722 25.2253 62.9531 25.2253 64.0515 26.3237C65.1497 27.4223 65.1497 29.2029 64.0511 30.3013V30.3013Z" fill="url(#paint1_linear_713_7978)"/>
<defs>
<linearGradient id="paint0_linear_713_7978" x1="48" y1="96" x2="48" y2="0" gradientUnits="userSpaceOnUse">
<stop stop-color="#00B59C"/>
<stop offset="1" stop-color="#9CFFAC"/>
</linearGradient>
<linearGradient id="paint1_linear_713_7978" x1="56.4375" y1="50.8125" x2="56.4375" y2="11.4375" gradientUnits="userSpaceOnUse">
<stop stop-color="#C3FFE8"/>
<stop offset="0.9973" stop-color="#F0FFF4"/>
</linearGradient>
</defs>
</svg>
