<svg width="1440" height="271" viewBox="0 0 1440 271" fill="none" xmlns="http://www.w3.org/2000/svg">
<path d="M505.112 287.077C560.709 287.077 605.779 242.007 605.779 186.41C605.779 130.814 560.709 85.7435 505.112 85.7435C449.515 85.7435 404.445 130.814 404.445 186.41C404.445 242.007 449.515 287.077 505.112 287.077Z" fill="#E6E8EC"/>
<path d="M410.389 296.778C465.986 296.778 511.056 251.708 511.056 196.111C511.056 140.514 465.986 95.4444 410.389 95.4444C354.792 95.4444 309.722 140.514 309.722 196.111C309.722 251.708 354.792 296.778 410.389 296.778Z" fill="#E6E8EC"/>
<path d="M1031.17 330.333C1086.76 330.333 1131.83 285.263 1131.83 229.667C1131.83 174.07 1086.76 129 1031.17 129C975.57 129 930.5 174.07 930.5 229.667C930.5 285.263 975.57 330.333 1031.17 330.333Z" fill="#E6E8EC"/>
<path d="M292.944 280C348.541 280 393.611 234.93 393.611 179.333C393.611 123.737 348.541 78.6666 292.944 78.6666C237.348 78.6666 192.278 123.737 192.278 179.333C192.278 234.93 237.348 280 292.944 280Z" fill="#E6E8EC"/>
<path d="M58.1355 384.556C160.063 384.556 242.691 301.928 242.691 200.001C242.691 98.0735 160.063 15.4451 58.1355 15.4451C-43.7917 15.4451 -126.42 98.0735 -126.42 200.001C-126.42 301.928 -43.7917 384.556 58.1355 384.556Z" fill="#E6E8EC"/>
<path d="M209.056 431C310.983 431 393.611 348.372 393.611 246.444C393.611 144.517 310.983 61.8888 209.056 61.8888C107.128 61.8888 24.5 144.517 24.5 246.444C24.5 348.372 107.128 431 209.056 431Z" fill="#E6E8EC"/>
<path d="M1266.06 380.667C1367.98 380.667 1450.61 298.038 1450.61 196.111C1450.61 94.1838 1367.98 11.5555 1266.06 11.5555C1164.13 11.5555 1081.5 94.1838 1081.5 196.111C1081.5 298.038 1164.13 380.667 1266.06 380.667Z" fill="#E6E8EC"/>
<path d="M352.818 229.667C399.148 229.667 436.706 192.108 436.706 145.778C436.706 99.4472 399.148 61.8888 352.818 61.8888C306.487 61.8888 268.929 99.4472 268.929 145.778C268.929 192.108 306.487 229.667 352.818 229.667Z" fill="#E6E8EC"/>
<path d="M829.833 397.444C885.43 397.444 930.5 352.374 930.5 296.778C930.5 241.181 885.43 196.111 829.833 196.111C774.237 196.111 729.167 241.181 729.167 296.778C729.167 352.374 774.237 397.444 829.833 397.444Z" fill="#E6E8EC"/>
<path d="M947.278 397.444C1002.87 397.444 1047.94 352.374 1047.94 296.778C1047.94 241.181 1002.87 196.111 947.278 196.111C891.681 196.111 846.611 241.181 846.611 296.778C846.611 352.374 891.681 397.444 947.278 397.444Z" fill="#E6E8EC"/>
<path d="M662.056 280C708.386 280 745.945 242.442 745.945 196.111C745.945 149.781 708.386 112.222 662.056 112.222C615.725 112.222 578.167 149.781 578.167 196.111C578.167 242.442 615.725 280 662.056 280Z" fill="#E6E8EC"/>
<path d="M494.278 363.889C540.608 363.889 578.167 326.331 578.167 280C578.167 233.669 540.608 196.111 494.278 196.111C447.947 196.111 410.389 233.669 410.389 280C410.389 326.331 447.947 363.889 494.278 363.889Z" fill="#E6E8EC"/>
<path d="M611.722 347.111C658.053 347.111 695.611 309.553 695.611 263.222C695.611 216.892 658.053 179.333 611.722 179.333C565.392 179.333 527.833 216.892 527.833 263.222C527.833 309.553 565.392 347.111 611.722 347.111Z" fill="#E6E8EC"/>
<path d="M712.389 363.889C758.72 363.889 796.278 326.331 796.278 280C796.278 233.669 758.72 196.111 712.389 196.111C666.058 196.111 628.5 233.669 628.5 280C628.5 326.331 666.058 363.889 712.389 363.889Z" fill="#E6E8EC"/>
<path d="M1148.61 246.444C1176.41 246.444 1198.94 223.909 1198.94 196.111C1198.94 168.313 1176.41 145.778 1148.61 145.778C1120.81 145.778 1098.28 168.313 1098.28 196.111C1098.28 223.909 1120.81 246.444 1148.61 246.444Z" fill="#E6E8EC"/>
<path d="M460.722 280C488.521 280 505.112 314.875 505.112 287.077C505.112 259.279 488.521 179.333 460.722 179.333C432.924 179.333 410.389 201.868 410.389 229.667C410.389 257.465 432.924 280 460.722 280Z" fill="#E6E8EC"/>
<path d="M209.056 212.889C236.854 212.889 259.389 190.354 259.389 162.556C259.389 134.757 236.854 112.222 209.056 112.222C181.257 112.222 158.722 134.757 158.722 162.556C158.722 190.354 181.257 212.889 209.056 212.889Z" fill="#E6E8EC"/>
<path d="M712.389 263.222C740.187 263.222 762.722 240.687 762.722 212.889C762.722 185.091 740.187 162.556 712.389 162.556C684.591 162.556 662.056 185.091 662.056 212.889C662.056 240.687 684.591 263.222 712.389 263.222Z" fill="#E6E8EC"/>
<path d="M913.722 263.222C941.521 263.222 964.055 240.687 964.055 212.889C964.055 185.091 941.521 162.556 913.722 162.556C885.924 162.556 863.389 185.091 863.389 212.889C863.389 240.687 885.924 263.222 913.722 263.222Z" fill="#E6E8EC"/>
<path d="M779.5 229.667C788.766 229.667 796.278 222.155 796.278 212.889C796.278 203.623 788.766 196.111 779.5 196.111C770.234 196.111 762.722 203.623 762.722 212.889C762.722 222.155 770.234 229.667 779.5 229.667Z" fill="#E6E8EC"/>
<path d="M829.833 229.667C839.099 229.667 846.611 222.155 846.611 212.889C846.611 203.623 839.099 196.111 829.833 196.111C820.567 196.111 813.056 203.623 813.056 212.889C813.056 222.155 820.567 229.667 829.833 229.667Z" fill="#E6E8EC"/>
<path d="M762.722 246.444C771.988 246.444 779.5 238.933 779.5 229.667C779.5 220.4 771.988 212.889 762.722 212.889C753.456 212.889 745.945 220.4 745.945 229.667C745.945 238.933 753.456 246.444 762.722 246.444Z" fill="#E6E8EC"/>
<path d="M51.8204 33.6537C61.0865 33.6537 68.5982 26.142 68.5982 16.8759C68.5982 7.60981 61.0865 0.0981445 51.8204 0.0981445C42.5543 0.0981445 35.0427 7.60981 35.0427 16.8759C35.0427 26.142 42.5543 33.6537 51.8204 33.6537Z" fill="#E6E8EC"/>
<path d="M863.389 212.889C872.655 212.889 880.167 205.377 880.167 196.111C880.167 186.845 872.655 179.333 863.389 179.333C854.123 179.333 846.611 186.845 846.611 196.111C846.611 205.377 854.123 212.889 863.389 212.889Z" fill="#E6E8EC"/>
</svg>
