<svg width="96" height="96" viewBox="0 0 96 96" fill="none" xmlns="http://www.w3.org/2000/svg">
<path d="M95.4362 29.4358C94.905 28.7286 94.0719 28.3125 93.1875 28.3125H73.0768C71.7337 20.3417 64.7842 14.25 56.4375 14.25C48.0908 14.25 41.1413 20.3417 39.7982 28.3125H22.3166L18.6416 2.41744C18.4449 1.03069 17.2579 0 15.8571 0H2.8125C1.25925 0 0 1.25925 0 2.8125C0 4.36575 1.25925 5.625 2.8125 5.625H13.4156L17.0904 31.5195V31.5197V31.5203L21.336 61.4263C21.7967 64.6507 23.3647 67.6097 25.7606 69.8046C23.8849 71.3533 22.6875 73.6957 22.6875 76.3125C22.6875 80.1981 25.3284 83.4767 28.9089 84.4526C28.5255 85.4158 28.3125 86.4645 28.3125 87.5625C28.3125 92.2149 32.0976 96 36.75 96C41.4024 96 45.1875 92.2149 45.1875 87.5625C45.1875 86.5766 45.0159 85.6303 44.7038 84.75H68.1712C67.8591 85.6303 67.6875 86.5766 67.6875 87.5625C67.6875 92.2149 71.4726 96 76.125 96C80.7774 96 84.5625 92.2149 84.5625 87.5625C84.5625 82.9101 80.7774 79.125 76.125 79.125H31.125C29.5742 79.125 28.3125 77.8633 28.3125 76.3125C28.3125 74.7617 29.5742 73.5 31.125 73.5H73.2641C79.5096 73.5 85.0697 69.306 86.7825 63.3114L95.8888 31.9084C96.135 31.0588 95.9674 30.1429 95.4362 29.4358Z" fill="url(#paint0_linear_2_1433)"/>
<defs>
<linearGradient id="paint0_linear_2_1433" x1="48" y1="96" x2="48" y2="0" gradientUnits="userSpaceOnUse">
<stop stop-color="#00B59C"/>
<stop offset="1" stop-color="#9CFFAC"/>
</linearGradient>
</defs>
</svg>
