<svg width="20" height="20" viewBox="0 0 20 20" fill="none" xmlns="http://www.w3.org/2000/svg">
<path fill-rule="evenodd" clip-rule="evenodd" d="M9.99999 16.6667C13.6819 16.6667 16.6667 13.6819 16.6667 10C16.6667 6.31812 13.6819 3.33335 9.99999 3.33335C6.31809 3.33335 3.33332 6.31812 3.33332 10C3.33332 13.6819 6.31809 16.6667 9.99999 16.6667ZM9.99999 18.3334C14.6023 18.3334 18.3333 14.6024 18.3333 10C18.3333 5.39765 14.6023 1.66669 9.99999 1.66669C5.39761 1.66669 1.66666 5.39765 1.66666 10C1.66666 14.6024 5.39761 18.3334 9.99999 18.3334Z" fill="#777E91"/>
<path d="M9.99999 8.33331C9.99999 7.87308 10.3731 7.49998 10.8333 7.49998H11.6667C12.1269 7.49998 12.5 7.12689 12.5 6.66665C12.5 6.20641 12.1269 5.83331 11.6667 5.83331H10.8333C9.45257 5.83331 8.33332 6.9526 8.33332 8.33331V9.99998H7.49999C7.03976 9.99998 6.66666 10.3731 6.66666 10.8333C6.66666 11.2936 7.03975 11.6666 7.49999 11.6666H8.33332V16.6666C8.33332 17.1269 8.70641 17.5 9.16666 17.5C9.62691 17.5 9.99999 17.1269 9.99999 16.6666V11.6666H11.6667C12.1269 11.6666 12.5 11.2936 12.5 10.8333C12.5 10.3731 12.1269 9.99998 11.6667 9.99998H9.99999V8.33331Z" fill="#777E91"/>
</svg>
