<svg width="20" height="20" viewBox="0 0 20 20" fill="none" xmlns="http://www.w3.org/2000/svg">
<path fill-rule="evenodd" clip-rule="evenodd" d="M13.3333 3.33335H6.66666C4.82571 3.33335 3.33332 4.82574 3.33332 6.66669V13.3334C3.33332 15.1743 4.82571 16.6667 6.66666 16.6667H13.3333C15.1742 16.6667 16.6667 15.1743 16.6667 13.3334V6.66669C16.6667 4.82574 15.1742 3.33335 13.3333 3.33335ZM6.66666 1.66669C3.90523 1.66669 1.66666 3.90526 1.66666 6.66669V13.3334C1.66666 16.0948 3.90523 18.3334 6.66666 18.3334H13.3333C16.0947 18.3334 18.3333 16.0948 18.3333 13.3334V6.66669C18.3333 3.90526 16.0947 1.66669 13.3333 1.66669H6.66666Z" fill="#777E91"/>
<path d="M14.1667 6.66667C14.6269 6.66667 15 6.29357 15 5.83333C15 5.3731 14.6269 5 14.1667 5C13.7064 5 13.3333 5.3731 13.3333 5.83333C13.3333 6.29357 13.7064 6.66667 14.1667 6.66667Z" fill="#777E91"/>
<path fill-rule="evenodd" clip-rule="evenodd" d="M14.1667 9.99998C14.1667 12.3011 12.3012 14.1666 10 14.1666C7.69883 14.1666 5.83334 12.3011 5.83334 9.99998C5.83334 7.6988 7.69883 5.83331 10 5.83331C12.3012 5.83331 14.1667 7.6988 14.1667 9.99998ZM12.5 9.99998C12.5 11.3807 11.3808 12.5 10 12.5C8.61926 12.5 7.50001 11.3807 7.50001 9.99998C7.50001 8.61923 8.61926 7.49998 10 7.49998C11.3808 7.49998 12.5 8.61923 12.5 9.99998Z" fill="#777E91"/>
</svg>
