<svg width="20" height="20" viewBox="0 0 20 20" fill="none" xmlns="http://www.w3.org/2000/svg">
<path fill-rule="evenodd" clip-rule="evenodd" d="M13.3332 3.33341H6.6665C4.82555 3.33341 3.33317 4.8258 3.33317 6.66675V13.3334C3.33317 15.1743 4.82555 16.6667 6.6665 16.6667H13.3332C15.1741 16.6667 16.6665 15.1743 16.6665 13.3334V6.66675C16.6665 4.8258 15.1741 3.33341 13.3332 3.33341ZM6.6665 1.66675C3.90508 1.66675 1.6665 3.90532 1.6665 6.66675V13.3334C1.6665 16.0948 3.90508 18.3334 6.6665 18.3334H13.3332C16.0946 18.3334 18.3332 16.0948 18.3332 13.3334V6.66675C18.3332 3.90532 16.0946 1.66675 13.3332 1.66675H6.6665Z" fill="#777E91"/>
<path d="M14.1668 6.66667C14.6271 6.66667 15.0002 6.29357 15.0002 5.83333C15.0002 5.3731 14.6271 5 14.1668 5C13.7066 5 13.3335 5.3731 13.3335 5.83333C13.3335 6.29357 13.7066 6.66667 14.1668 6.66667Z" fill="#777E91"/>
<path fill-rule="evenodd" clip-rule="evenodd" d="M14.1668 9.99992C14.1668 12.3011 12.3013 14.1666 10.0002 14.1666C7.69898 14.1666 5.8335 12.3011 5.8335 9.99992C5.8335 7.69874 7.69898 5.83325 10.0002 5.83325C12.3013 5.83325 14.1668 7.69874 14.1668 9.99992ZM12.5002 9.99992C12.5002 11.3807 11.3809 12.4999 10.0002 12.4999C8.61941 12.4999 7.50016 11.3807 7.50016 9.99992C7.50016 8.61917 8.61941 7.49992 10.0002 7.49992C11.3809 7.49992 12.5002 8.61917 12.5002 9.99992Z" fill="#777E91"/>
</svg>
