<svg width="20" height="20" viewBox="0 0 20 20" fill="none" xmlns="http://www.w3.org/2000/svg">
<path fill-rule="evenodd" clip-rule="evenodd" d="M9.99984 16.6667C13.6818 16.6667 16.6665 13.682 16.6665 10.0001C16.6665 6.31818 13.6818 3.33341 9.99984 3.33341C6.31794 3.33341 3.33317 6.31818 3.33317 10.0001C3.33317 13.682 6.31794 16.6667 9.99984 16.6667ZM9.99984 18.3334C14.6022 18.3334 18.3332 14.6024 18.3332 10.0001C18.3332 5.39771 14.6022 1.66675 9.99984 1.66675C5.39746 1.66675 1.6665 5.39771 1.6665 10.0001C1.6665 14.6024 5.39746 18.3334 9.99984 18.3334Z" fill="#777E91"/>
<path d="M9.99984 8.33325C9.99984 7.87302 10.3729 7.49992 10.8332 7.49992H11.6665C12.1268 7.49992 12.4998 7.12683 12.4998 6.66659C12.4998 6.20635 12.1268 5.83325 11.6665 5.83325H10.8332C9.45242 5.83325 8.33317 6.95254 8.33317 8.33325V9.99992H7.49984C7.0396 9.99992 6.6665 10.373 6.6665 10.8333C6.6665 11.2935 7.0396 11.6666 7.49984 11.6666H8.33317V16.6666C8.33317 17.1268 8.70625 17.4999 9.1665 17.4999C9.62675 17.4999 9.99984 17.1268 9.99984 16.6666V11.6666H11.6665C12.1268 11.6666 12.4998 11.2935 12.4998 10.8333C12.4998 10.373 12.1268 9.99992 11.6665 9.99992H9.99984V8.33325Z" fill="#777E91"/>
</svg>
