<svg width="56" height="56" viewBox="0 0 56 56" fill="none" xmlns="http://www.w3.org/2000/svg">
<rect width="56" height="56" rx="28" fill="#FFD166"/>
<path d="M35.7109 19.0559C33.4373 18.6484 31.3436 17.4068 30.2979 16.703C29.6147 16.2431 28.8201 16 28 16C27.1799 16 26.3853 16.2431 25.7021 16.703C24.6565 17.4068 22.5627 18.6485 20.2892 19.0559C18.9427 19.2972 17.9653 20.4623 17.9653 21.8261V27.4843C17.9653 29.3536 18.4883 31.1757 19.5197 32.9002C20.3265 34.2493 21.4445 35.5387 22.8425 36.7326C25.1932 38.74 27.5208 39.7868 27.6187 39.8304L28 40L28.3814 39.8304C28.4793 39.7868 30.8069 38.74 33.1576 36.7326C34.5555 35.5387 35.6735 34.2493 36.4804 32.9002C37.5118 31.1757 38.0348 29.3536 38.0348 27.4843V21.826C38.0348 20.4622 37.0574 19.2971 35.7109 19.0559ZM36.159 27.4843C36.159 30.271 34.7512 32.8925 31.9746 35.276C30.3606 36.6616 28.722 37.5647 28.0001 37.9312C26.3406 37.088 19.8409 33.406 19.8409 27.4843V21.826C19.8409 21.3716 20.1686 20.983 20.6201 20.9021C23.2318 20.434 25.5814 19.0451 26.7495 18.259C27.122 18.0082 27.5545 17.8757 28 17.8757C28.4456 17.8757 28.878 18.0082 29.2505 18.259C30.4186 19.0452 32.7681 20.4341 35.3799 20.9022C35.8313 20.9831 36.159 21.3716 36.159 21.8261V27.4843Z" fill="white"/>
<path d="M26.5478 29.8015L23.3425 26.8006L22.0605 28.1699L26.6687 32.484L33.9988 24.2643L32.599 23.0159L26.5478 29.8015Z" fill="white"/>
</svg>
