<?xml version="1.0" encoding="utf-8"?>
<!-- Generator: Adobe Illustrator 26.0.2, SVG Export Plug-In . SVG Version: 6.00 Build 0)  -->
<svg version="1.1" id="Layer_1" xmlns="http://www.w3.org/2000/svg" xmlns:xlink="http://www.w3.org/1999/xlink" x="0px" y="0px"
	 viewBox="0 0 288 144" style="enable-background:new 0 0 288 144;" xml:space="preserve">
<style type="text/css">
	.st0{fill:#323284;}
	.st1{fill:url(#SVGID_1_);}
</style>
<g>
	<g>
		<path d="M97.95,94.82V45.6h10.48v40h20.81v9.22H97.95z"/>
		<path d="M155.47,94.82v-3.69c-2.44,2.88-6.64,4.58-11.29,4.58c-5.68,0-12.4-3.84-12.4-11.81c0-8.34,6.72-11.36,12.4-11.36
			c4.72,0,8.93,1.48,11.29,4.35v-4.94c0-3.62-3.1-5.98-7.82-5.98c-3.84,0-7.38,1.4-10.41,4.21l-3.54-6.27
			c4.35-3.84,9.96-5.61,15.57-5.61c8.12,0,15.57,3.25,15.57,13.5v23.02H155.47z M155.47,81.83c-1.55-2.07-4.5-3.1-7.53-3.1
			c-3.69,0-6.72,1.99-6.72,5.39c0,3.32,3.03,5.24,6.72,5.24c3.03,0,5.98-1.03,7.53-3.1V81.83z"/>
		<path d="M179.82,59.18v36.6c0,8.12-4.13,13.5-12.69,13.5c-1.7,0-2.95-0.15-4.06-0.37l0.59-7.67c0.59,0.15,1.48,0.22,2.07,0.22
			c2.73,0,4.72-1.7,4.72-5.68v-36.6H179.82z M169.49,48.33c0-3.1,2.58-5.61,5.61-5.61c3.1,0,5.61,2.51,5.61,5.61
			c0,3.1-2.51,5.61-5.61,5.61C172.08,53.94,169.49,51.43,169.49,48.33z"/>
		<path d="M202.08,58.29c10.63,0,17.86,7.97,17.86,19.63v2.07h-26.49c0.59,4.5,4.21,8.27,10.26,8.27c3.32,0,7.23-1.33,9.52-3.54
			l4.13,6.05c-3.62,3.32-9.15,4.94-14.69,4.94c-10.85,0-19.04-7.31-19.04-18.74C183.63,66.63,191.23,58.29,202.08,58.29z
			 M193.3,73.64h17.56c-0.22-3.39-2.58-7.9-8.78-7.9C196.25,65.74,193.74,70.1,193.3,73.64z"/>
		<path d="M248.07,94.82V73.27c0-4.94-2.58-6.64-6.57-6.64c-3.69,0-6.57,2.07-8.12,4.21v23.98h-9.37V59.18h9.37v4.65
			c2.29-2.73,6.64-5.53,12.47-5.53c7.82,0,11.59,4.43,11.59,11.36v25.16H248.07z"/>
		<path d="M262.09,48.33c0-3.1,2.58-5.61,5.61-5.61c3.1,0,5.61,2.51,5.61,5.61c0,3.1-2.51,5.61-5.61,5.61
			C264.67,53.94,262.09,51.43,262.09,48.33z M263.05,94.82V59.18h9.37v35.64H263.05z"/>
	</g>
	<g>
		<path class="st0" d="M45.83,88.12h34.6c-6.19,10.28-17.46,17.15-30.33,17.15c-19.55,0-35.4-15.85-35.4-35.4
			c0-18.11,13.59-33.04,31.13-35.15V88.12z"/>
		<linearGradient id="SVGID_1_" gradientUnits="userSpaceOnUse" x1="66.3611" y1="60.0046" x2="80.548" y2="85.7116">
			<stop  offset="0" style="stopColor:#3ED67B"/>
			<stop  offset="1" style="stopColor:#1F843E"/>
		</linearGradient>
		<path class="st1" d="M75.96,66.35c-5.33,8.64-13.69,14.28-22.87,16.4c-2.24-9.15-0.95-19.16,4.38-27.81s13.71-14.31,22.88-16.4
			C82.58,47.69,81.29,57.7,75.96,66.35z"/>
	</g>
</g>
</svg>
